<svg width="274" height="41" viewBox="0 0 274 41" fill="none" xmlns="http://www.w3.org/2000/svg">
<circle cx="17.5" cy="36" r="4.5" fill="#6F63EF"/>
<path d="M17.5 0.5V13.5C15.3333 18.6667 10.6 29.9 9 33.5C5 34.3 1.33333 35.8333 0 36.5L15.5 0.5H17.5Z" fill="#090A0C"/>
<path d="M17 0.5V13.5C19.1667 18.6667 23.9 29.9 25.5 33.5C29.5 34.3 33.1667 35.8333 34.5 36.5L19 0.5H17Z" fill="#090A0C"/>
<path d="M46.812 28.5L52.596 10.98H58.956L64.956 28.5H60.876L56.028 13.692L57.276 14.196H54.18L55.476 13.692L50.748 28.5H46.812ZM51.204 24.156L52.404 20.892H59.268L60.492 24.156H51.204ZM67.7259 28.5V10.98H71.5899V28.5H67.7259ZM66.1659 13.812V10.98H71.5899V13.812H66.1659ZM81.8243 28.668C80.4963 28.668 79.4243 28.508 78.6083 28.188C77.7923 27.852 77.1923 27.3 76.8083 26.532C76.4403 25.748 76.2563 24.692 76.2563 23.364V11.796H79.8323V23.508C79.8323 24.132 79.9923 24.612 80.3123 24.948C80.6483 25.268 81.1203 25.428 81.7283 25.428H83.6723V28.668H81.8243ZM74.2643 18.156V15.348H83.6723V18.156H74.2643ZM94.8716 28.5V24.612H94.2236V20.388C94.2236 19.716 94.0636 19.212 93.7436 18.876C93.4236 18.54 92.9116 18.372 92.2076 18.372C91.8556 18.372 91.3916 18.38 90.8156 18.396C90.2396 18.412 89.6476 18.436 89.0396 18.468C88.4316 18.5 87.8796 18.532 87.3836 18.564V15.324C87.7516 15.292 88.1836 15.26 88.6796 15.228C89.1756 15.196 89.6876 15.172 90.2156 15.156C90.7436 15.14 91.2396 15.132 91.7036 15.132C93.0476 15.132 94.1756 15.324 95.0876 15.708C96.0156 16.092 96.7196 16.676 97.1996 17.46C97.6796 18.228 97.9196 19.22 97.9196 20.436V28.5H94.8716ZM90.6716 28.836C89.7276 28.836 88.8956 28.668 88.1756 28.332C87.4716 27.996 86.9196 27.516 86.5196 26.892C86.1196 26.252 85.9196 25.492 85.9196 24.612C85.9196 23.652 86.1676 22.868 86.6636 22.26C87.1596 21.636 87.8556 21.18 88.7516 20.892C89.6476 20.588 90.6796 20.436 91.8476 20.436H94.6556V22.572H91.8236C91.1516 22.572 90.6316 22.74 90.2636 23.076C89.9116 23.396 89.7356 23.836 89.7356 24.396C89.7356 24.924 89.9116 25.356 90.2636 25.692C90.6316 26.012 91.1516 26.172 91.8236 26.172C92.2556 26.172 92.6396 26.1 92.9756 25.956C93.3276 25.796 93.6156 25.532 93.8396 25.164C94.0636 24.796 94.1916 24.284 94.2236 23.628L95.1356 24.588C95.0556 25.5 94.8316 26.268 94.4636 26.892C94.1116 27.516 93.6156 27.996 92.9756 28.332C92.3516 28.668 91.5836 28.836 90.6716 28.836ZM101.034 28.5V25.812L107.202 18.42V18.804L106.626 18.084L107.058 18.3H101.058V15.348H111.402V18.036L105.234 25.428V25.068L105.81 25.788L105.378 25.548H111.594V28.5H101.034ZM115.288 28.5V15.348H119.128V28.5H115.288ZM113.536 18.18V15.348H119.128V18.18H113.536ZM116.776 14.052C116.056 14.052 115.52 13.868 115.168 13.5C114.832 13.116 114.664 12.636 114.664 12.06C114.664 11.468 114.832 10.988 115.168 10.62C115.52 10.236 116.056 10.044 116.776 10.044C117.496 10.044 118.024 10.236 118.36 10.62C118.712 10.988 118.888 11.468 118.888 12.06C118.888 12.636 118.712 13.116 118.36 13.5C118.024 13.868 117.496 14.052 116.776 14.052ZM129.808 28.956C128.656 28.956 127.632 28.78 126.736 28.428C125.84 28.06 125.08 27.564 124.456 26.94C123.848 26.316 123.384 25.604 123.064 24.804C122.744 23.988 122.584 23.132 122.584 22.236V21.684C122.584 20.772 122.744 19.908 123.064 19.092C123.4 18.26 123.88 17.532 124.504 16.908C125.144 16.284 125.912 15.796 126.808 15.444C127.704 15.076 128.704 14.892 129.808 14.892C130.944 14.892 131.952 15.076 132.832 15.444C133.728 15.796 134.488 16.284 135.112 16.908C135.736 17.532 136.216 18.26 136.552 19.092C136.888 19.908 137.056 20.772 137.056 21.684V22.236C137.056 23.132 136.896 23.988 136.576 24.804C136.256 25.604 135.784 26.316 135.16 26.94C134.552 27.564 133.8 28.06 132.904 28.428C132.008 28.78 130.976 28.956 129.808 28.956ZM129.808 25.716C130.56 25.716 131.184 25.556 131.68 25.236C132.176 24.916 132.552 24.468 132.808 23.892C133.08 23.316 133.216 22.676 133.216 21.972C133.216 21.22 133.08 20.564 132.808 20.004C132.536 19.428 132.144 18.972 131.632 18.636C131.136 18.3 130.528 18.132 129.808 18.132C129.104 18.132 128.496 18.3 127.984 18.636C127.472 18.972 127.08 19.428 126.808 20.004C126.552 20.564 126.424 21.22 126.424 21.972C126.424 22.676 126.552 23.316 126.808 23.892C127.064 24.468 127.448 24.916 127.96 25.236C128.472 25.556 129.088 25.716 129.808 25.716ZM140.456 28.5V15.348H143.504V20.988H143.288C143.288 19.644 143.456 18.524 143.792 17.628C144.144 16.732 144.672 16.06 145.376 15.612C146.08 15.164 146.936 14.94 147.944 14.94H148.112C149.648 14.94 150.816 15.444 151.616 16.452C152.432 17.444 152.84 18.956 152.84 20.988V28.5H149V20.772C149 20.068 148.792 19.492 148.376 19.044C147.96 18.596 147.4 18.372 146.696 18.372C145.976 18.372 145.392 18.604 144.944 19.068C144.512 19.516 144.296 20.108 144.296 20.844V28.5H140.456ZM168.903 28.956C167.319 28.956 165.983 28.708 164.895 28.212C163.807 27.7 162.983 27.012 162.423 26.148C161.863 25.268 161.583 24.26 161.583 23.124H165.399C165.399 23.572 165.519 23.988 165.759 24.372C166.015 24.756 166.399 25.068 166.911 25.308C167.423 25.532 168.087 25.644 168.903 25.644C169.639 25.644 170.255 25.548 170.751 25.356C171.247 25.164 171.623 24.9 171.879 24.564C172.135 24.212 172.263 23.812 172.263 23.364C172.263 22.804 172.023 22.364 171.543 22.044C171.063 21.708 170.287 21.492 169.215 21.396L167.895 21.276C166.151 21.132 164.759 20.588 163.719 19.644C162.679 18.7 162.159 17.452 162.159 15.9C162.159 14.78 162.423 13.812 162.951 12.996C163.495 12.18 164.247 11.556 165.207 11.124C166.167 10.676 167.303 10.452 168.615 10.452C169.991 10.452 171.167 10.692 172.143 11.172C173.135 11.636 173.895 12.3 174.423 13.164C174.951 14.012 175.215 15.012 175.215 16.164H171.375C171.375 15.732 171.271 15.34 171.063 14.988C170.855 14.62 170.543 14.324 170.127 14.1C169.727 13.876 169.223 13.764 168.615 13.764C168.039 13.764 167.551 13.86 167.151 14.052C166.767 14.244 166.479 14.508 166.287 14.844C166.095 15.164 165.999 15.516 165.999 15.9C165.999 16.396 166.175 16.828 166.527 17.196C166.879 17.564 167.455 17.78 168.255 17.844L169.599 17.964C170.879 18.076 172.007 18.356 172.983 18.804C173.959 19.236 174.719 19.836 175.263 20.604C175.823 21.356 176.103 22.276 176.103 23.364C176.103 24.484 175.807 25.468 175.215 26.316C174.639 27.148 173.815 27.796 172.743 28.26C171.671 28.724 170.391 28.956 168.903 28.956ZM185.343 28.956C184.223 28.956 183.231 28.764 182.367 28.38C181.519 27.996 180.807 27.484 180.231 26.844C179.671 26.188 179.239 25.46 178.935 24.66C178.647 23.844 178.503 23.012 178.503 22.164V21.684C178.503 20.804 178.647 19.964 178.935 19.164C179.239 18.348 179.671 17.62 180.231 16.98C180.791 16.34 181.487 15.836 182.319 15.468C183.167 15.084 184.127 14.892 185.199 14.892C186.607 14.892 187.791 15.212 188.751 15.852C189.727 16.476 190.471 17.3 190.983 18.324C191.495 19.332 191.751 20.436 191.751 21.636V22.932H180.111V20.748H189.423L188.175 21.756C188.175 20.972 188.063 20.3 187.839 19.74C187.615 19.18 187.279 18.756 186.831 18.468C186.399 18.164 185.855 18.012 185.199 18.012C184.527 18.012 183.959 18.164 183.495 18.468C183.031 18.772 182.679 19.22 182.439 19.812C182.199 20.388 182.079 21.1 182.079 21.948C182.079 22.732 182.191 23.42 182.415 24.012C182.639 24.588 182.991 25.036 183.471 25.356C183.951 25.676 184.575 25.836 185.343 25.836C186.047 25.836 186.623 25.7 187.071 25.428C187.519 25.156 187.823 24.82 187.983 24.42H191.511C191.319 25.3 190.943 26.084 190.383 26.772C189.823 27.46 189.119 27.996 188.271 28.38C187.423 28.764 186.447 28.956 185.343 28.956ZM195.016 28.5V15.348H198.064V20.988H197.992C197.992 19.132 198.384 17.7 199.168 16.692C199.968 15.684 201.12 15.18 202.624 15.18H203.128V18.492H202.168C201.112 18.492 200.296 18.78 199.72 19.356C199.144 19.916 198.856 20.732 198.856 21.804V28.5H195.016ZM208.756 28.5L204.82 15.348H208.78L212.476 28.5H208.756ZM209.956 28.5V25.308H213.82V28.5H209.956ZM211.372 28.5L214.564 15.348H218.26L214.852 28.5H211.372ZM221.877 28.5V15.348H225.717V28.5H221.877ZM220.125 18.18V15.348H225.717V18.18H220.125ZM223.365 14.052C222.645 14.052 222.109 13.868 221.757 13.5C221.421 13.116 221.253 12.636 221.253 12.06C221.253 11.468 221.421 10.988 221.757 10.62C222.109 10.236 222.645 10.044 223.365 10.044C224.085 10.044 224.613 10.236 224.949 10.62C225.301 10.988 225.477 11.468 225.477 12.06C225.477 12.636 225.301 13.116 224.949 13.5C224.613 13.868 224.085 14.052 223.365 14.052ZM235.892 28.956C234.756 28.956 233.764 28.772 232.916 28.404C232.084 28.02 231.388 27.508 230.828 26.868C230.268 26.228 229.852 25.508 229.58 24.708C229.308 23.892 229.172 23.052 229.172 22.188V21.732C229.172 20.836 229.316 19.98 229.604 19.164C229.892 18.332 230.316 17.596 230.876 16.956C231.436 16.316 232.132 15.812 232.964 15.444C233.812 15.076 234.78 14.892 235.868 14.892C237.052 14.892 238.1 15.124 239.012 15.588C239.924 16.036 240.652 16.668 241.196 17.484C241.74 18.3 242.044 19.236 242.108 20.292H238.34C238.276 19.7 238.036 19.204 237.62 18.804C237.22 18.388 236.636 18.18 235.868 18.18C235.228 18.18 234.692 18.34 234.26 18.66C233.844 18.98 233.532 19.42 233.324 19.98C233.116 20.54 233.012 21.204 233.012 21.972C233.012 22.676 233.108 23.316 233.3 23.892C233.492 24.452 233.796 24.892 234.212 25.212C234.644 25.516 235.204 25.668 235.892 25.668C236.404 25.668 236.836 25.58 237.188 25.404C237.556 25.212 237.844 24.956 238.052 24.636C238.276 24.3 238.412 23.916 238.46 23.484H242.204C242.156 24.572 241.852 25.532 241.292 26.364C240.732 27.18 239.988 27.82 239.06 28.284C238.132 28.732 237.076 28.956 235.892 28.956ZM251.404 28.956C250.284 28.956 249.292 28.764 248.428 28.38C247.58 27.996 246.868 27.484 246.292 26.844C245.732 26.188 245.3 25.46 244.996 24.66C244.708 23.844 244.564 23.012 244.564 22.164V21.684C244.564 20.804 244.708 19.964 244.996 19.164C245.3 18.348 245.732 17.62 246.292 16.98C246.852 16.34 247.548 15.836 248.38 15.468C249.228 15.084 250.188 14.892 251.26 14.892C252.668 14.892 253.852 15.212 254.812 15.852C255.788 16.476 256.532 17.3 257.044 18.324C257.556 19.332 257.812 20.436 257.812 21.636V22.932H246.172V20.748H255.484L254.236 21.756C254.236 20.972 254.124 20.3 253.9 19.74C253.676 19.18 253.34 18.756 252.892 18.468C252.46 18.164 251.916 18.012 251.26 18.012C250.588 18.012 250.02 18.164 249.556 18.468C249.092 18.772 248.74 19.22 248.5 19.812C248.26 20.388 248.14 21.1 248.14 21.948C248.14 22.732 248.252 23.42 248.476 24.012C248.7 24.588 249.052 25.036 249.532 25.356C250.012 25.676 250.636 25.836 251.404 25.836C252.108 25.836 252.684 25.7 253.132 25.428C253.58 25.156 253.884 24.82 254.044 24.42H257.572C257.38 25.3 257.004 26.084 256.444 26.772C255.884 27.46 255.18 27.996 254.332 28.38C253.484 28.764 252.508 28.956 251.404 28.956ZM266.069 28.908C264.197 28.908 262.733 28.524 261.677 27.756C260.621 26.988 260.061 25.908 259.997 24.516H263.405C263.469 24.932 263.717 25.308 264.149 25.644C264.597 25.964 265.261 26.124 266.141 26.124C266.813 26.124 267.365 26.012 267.797 25.788C268.245 25.548 268.469 25.212 268.469 24.78C268.469 24.396 268.301 24.092 267.965 23.868C267.629 23.628 267.029 23.46 266.165 23.364L265.133 23.268C263.549 23.108 262.357 22.668 261.557 21.948C260.773 21.228 260.381 20.308 260.381 19.188C260.381 18.26 260.613 17.484 261.077 16.86C261.541 16.236 262.181 15.764 262.997 15.444C263.829 15.124 264.773 14.964 265.829 14.964C267.525 14.964 268.893 15.34 269.933 16.092C270.973 16.828 271.517 17.9 271.565 19.308H268.157C268.093 18.876 267.869 18.516 267.485 18.228C267.101 17.924 266.533 17.772 265.781 17.772C265.189 17.772 264.717 17.884 264.365 18.108C264.013 18.332 263.837 18.636 263.837 19.02C263.837 19.388 263.989 19.668 264.293 19.86C264.597 20.052 265.093 20.188 265.781 20.268L266.813 20.364C268.429 20.54 269.685 20.988 270.581 21.708C271.477 22.428 271.925 23.396 271.925 24.612C271.925 25.492 271.685 26.26 271.205 26.916C270.725 27.556 270.045 28.052 269.165 28.404C268.285 28.74 267.253 28.908 266.069 28.908Z" fill="#090A0C"/>
</svg>